<?xml version="1.0" encoding="UTF-8" standalone="no"?>
<svg
   id="Assembly"
   width="360"
   height="360"
   viewBox="0 0 360 360"
   version="1.1"
   sodipodi:docname="assembly.svg"
   inkscape:version="1.3 (0e150ed6c4, 2023-07-21)"
   xmlns:inkscape="http://www.inkscape.org/namespaces/inkscape"
   xmlns:sodipodi="http://sodipodi.sourceforge.net/DTD/sodipodi-0.dtd"
   xmlns="http://www.w3.org/2000/svg"
   xmlns:svg="http://www.w3.org/2000/svg">
  <defs
     id="defs1" />
  <sodipodi:namedview
     id="namedview1"
     pagecolor="#ffffff"
     bordercolor="#000000"
     borderopacity="0.25"
     inkscape:showpageshadow="2"
     inkscape:pageopacity="0.0"
     inkscape:pagecheckerboard="0"
     inkscape:deskcolor="#d1d1d1"
     inkscape:zoom="2.4972222"
     inkscape:cx="175.99555"
     inkscape:cy="184.40489"
     inkscape:window-width="1920"
     inkscape:window-height="1137"
     inkscape:window-x="-8"
     inkscape:window-y="-8"
     inkscape:window-maximized="1"
     inkscape:current-layer="Assembly" />
  <path
     id="path4"
     clip-path="none"
     d="M 11774.943 15153.029 A 1.988 1.988 0 0 0 11773.531 15153.615 L 11686.691 15240.453 L 11686.691 15204.23 A 2 2 0 0 0 11684.691 15202.23 L 11652.037 15202.23 A 2 2 0 0 0 11650.037 15204.23 L 11650.037 15301.017 A 2 2 0 0 0 11652.037 15303.017 L 11684.687 15303.017 L 11684.814 15303.017 L 11748.832 15303.017 A 2 2 0 0 0 11750.832 15301.017 L 11750.832 15268.367 A 2 2 0 0 0 11748.832 15266.367 L 11712.611 15266.367 L 11799.445 15179.531 A 2 2 0 0 0 11799.445 15176.703 L 11776.357 15153.615 A 1.988 1.988 0 0 0 11774.943 15153.029 z M 11485.121 15153.035 A 2.006 2.006 0 0 0 11483.705 15153.619 L 11460.619 15176.709 A 2 2 0 0 0 11460.619 15179.539 L 11547.455 15266.371 L 11511.228 15266.371 A 2 2 0 0 0 11509.228 15268.371 L 11509.228 15301.021 A 1.994 1.994 0 0 0 11511.228 15303.021 L 11575.244 15303.021 L 11575.306 15303.021 L 11575.371 15303.021 L 11608.021 15303.021 A 2 2 0 0 0 11610.025 15301.027 L 11610.025 15204.238 A 2 2 0 0 0 11608.025 15202.238 L 11575.375 15202.238 A 2 2 0 0 0 11573.375 15204.238 L 11573.375 15240.459 L 11486.535 15153.619 A 2.006 2.006 0 0 0 11485.121 15153.035 z M 11652.039 15343.033 A 2 2 0 0 0 11650.039 15345.035 L 11650.039 15441.826 A 2 2 0 0 0 11652.039 15443.826 L 11684.689 15443.826 A 2 2 0 0 0 11686.689 15441.826 L 11686.689 15405.601 L 11773.527 15492.439 A 2 2 0 0 0 11776.357 15492.439 L 11799.445 15469.353 A 2 2 0 0 0 11799.445 15466.525 L 11712.611 15379.687 L 11748.83 15379.687 A 2 2 0 0 0 11750.83 15377.687 L 11750.83 15345.033 A 2 2 0 0 0 11748.83 15343.033 L 11684.824 15343.033 L 11684.689 15343.033 L 11652.039 15343.033 z M 11511.23 15343.039 A 2 2 0 0 0 11509.23 15345.039 L 11509.23 15377.689 A 2 2 0 0 0 11511.23 15379.689 L 11547.451 15379.689 L 11460.617 15466.523 A 2 2 0 0 0 11460.617 15469.353 L 11483.705 15492.439 A 1.987 1.987 0 0 0 11485.119 15493.025 A 1.987 1.987 0 0 0 11486.531 15492.439 L 11573.371 15405.601 L 11573.371 15441.826 A 2 2 0 0 0 11575.371 15443.826 L 11608.025 15443.826 A 2 2 0 0 0 11610.025 15441.826 L 11610.025 15345.039 A 2 2 0 0 0 11608.025 15343.039 L 11575.375 15343.039 L 11575.242 15343.039 L 11511.23 15343.039 z "
     transform="translate(-11450.031 -15143.027)" />
</svg>
