<svg xmlns="http://www.w3.org/2000/svg" width="360" height="360" viewBox="0 0 360 360">
  <g id="Bell" transform="translate(-924 -1167)">
    <path id="Path_3227" data-name="Path 3227" d="M139.487,340a34.974,34.974,0,0,0,34.872-34.872H104.615A34.974,34.974,0,0,0,139.487,340M244.1,235.385V148.205c0-53.528-28.421-98.338-78.462-110.195V26.154a26.154,26.154,0,1,0-52.308,0V38.01C63.467,49.867,34.872,94.5,34.872,148.205v87.179L0,270.256v17.436H278.974V270.256ZM209.231,252.82H69.744V148.205c0-43.241,26.328-78.462,69.744-78.462s69.744,35.221,69.744,78.462Z" transform="translate(964.513 1177)"/>
    <rect id="Rectangle_3333" data-name="Rectangle 3333" width="360" height="360" transform="translate(924 1167)" fill="none"/>
  </g>
</svg>
