<svg id="Error" xmlns="http://www.w3.org/2000/svg" width="360" height="360" viewBox="0 0 360 360">
  <path id="Path_3230" data-name="Path 3230" d="M360,0V360H0Z" fill="none"/>
  <path id="Subtraction_44" data-name="Subtraction 44" d="M13213,15624a184.072,184.072,0,0,1-34.851-3.243,164.922,164.922,0,0,1-32.3-9.72,172.587,172.587,0,0,1-29-15.461,163.1,163.1,0,0,1-45.422-45.422,171.845,171.845,0,0,1-15.457-29,165.332,165.332,0,0,1-9.725-32.3A184.527,184.527,0,0,1,13043,15454a181.709,181.709,0,0,1,3.239-34.533,165.726,165.726,0,0,1,9.725-32.191,172.141,172.141,0,0,1,15.457-29.009,163.106,163.106,0,0,1,20.452-24.966,165.655,165.655,0,0,1,24.97-20.507,175.678,175.678,0,0,1,29-15.618,162.792,162.792,0,0,1,32.3-9.881A181.3,181.3,0,0,1,13213,15284a178.513,178.513,0,0,1,34.529,3.294,163.306,163.306,0,0,1,32.2,9.881,175.953,175.953,0,0,1,29,15.618,165.494,165.494,0,0,1,45.478,45.473,176.191,176.191,0,0,1,15.617,29.009,163.935,163.935,0,0,1,9.882,32.191A178.9,178.9,0,0,1,13383,15454a181.674,181.674,0,0,1-3.294,34.848,163.5,163.5,0,0,1-9.882,32.3,175.885,175.885,0,0,1-15.617,29,166.077,166.077,0,0,1-20.508,24.969,163.451,163.451,0,0,1-24.97,20.453,172.871,172.871,0,0,1-29,15.461,165.611,165.611,0,0,1-32.2,9.72A181.24,181.24,0,0,1,13213,15624Zm.5-117.5a17.937,17.937,0,1,0,7.007,1.414A17.895,17.895,0,0,0,13213.5,15506.5Zm-.5-148.5a16,16,0,0,0-16,16v88a16,16,0,0,0,32,0v-88a16,16,0,0,0-16-16Z" transform="translate(-13033 -15274)"/>
</svg>
