<svg xmlns="http://www.w3.org/2000/svg" width="360" height="360" viewBox="0 0 360 360">
  <g id="Filter" transform="translate(-1836 -106)">
    <path id="filter_alt_FILL0_wght400_GRAD0_opsz48" d="M302.049-460a19.884,19.884,0,0,1-14.809-6.11,20.8,20.8,0,0,1-5.976-15.141v-127.5L157.077-770.78Q149.8-779.814,155-789.907T171.106-800H474.56q10.911,0,16.108,10.093t-2.079,19.126L364.4-608.749v127.5a20.8,20.8,0,0,1-5.976,15.141A19.882,19.882,0,0,1,343.617-460Zm20.785-146.627,124.707-161.5H198.126ZM322.833-606.627Z" transform="translate(1693.165 915.997)"/>
    <rect id="Rectangle_3350" data-name="Rectangle 3350" width="360" height="360" transform="translate(1836 106)" fill="none"/>
  </g>
</svg>
