<svg xmlns="http://www.w3.org/2000/svg" width="360" height="360" viewBox="0 0 360 360">
  <g id="Help" transform="translate(-19717 -20488)">
    <rect id="Rectangle_1950" data-name="Rectangle 1950" width="360" height="360" transform="translate(19717 20488)" fill="none"/>
    <path id="Subtraction_37" data-name="Subtraction 37" d="M29876.959,36905.02a38.8,38.8,0,0,1-13.314-2.109,25.654,25.654,0,0,1-9.834-6.336,28.537,28.537,0,0,1-6.074-9.492,31.993,31.993,0,0,1-2.029-11.535,33.786,33.786,0,0,1,2.113-12.2,27.475,27.475,0,0,1,16.252-15.883,40.751,40.751,0,0,1,25.939.066,27.151,27.151,0,0,1,9.982,6.418,28.728,28.728,0,0,1,6.326,9.684,32.679,32.679,0,0,1,2.113,11.91,31.39,31.39,0,0,1-2.057,11.535,28.407,28.407,0,0,1-6.16,9.492,26.2,26.2,0,0,1-9.916,6.336A39.108,39.108,0,0,1,29876.959,36905.02Zm24.4-100.535h-51.773a180.125,180.125,0,0,1,1.879-27.3,92.5,92.5,0,0,1,5.646-21.129,89.812,89.812,0,0,1,11.2-18.941,180.805,180.805,0,0,1,18.563-20.711c14.768-14.34,24.246-24.68,28.17-30.73a56.614,56.614,0,0,0,6.84-14.5,53.923,53.923,0,0,0,2.279-15.66,61.893,61.893,0,0,0-2.652-18.93,36.3,36.3,0,0,0-7.955-13.855,33.328,33.328,0,0,0-13.08-8.484,53.1,53.1,0,0,0-18.049-2.828,53.649,53.649,0,0,0-17.705,2.773,39.6,39.6,0,0,0-13.881,8.316,35.541,35.541,0,0,0-8.979,13.055,45.681,45.681,0,0,0-3,16.988h-55.422a105.756,105.756,0,0,1,1.891-19.168,84.614,84.614,0,0,1,5.209-17.043,75.371,75.371,0,0,1,8.531-14.941,79.03,79.03,0,0,1,11.852-12.82,87.183,87.183,0,0,1,14.607-10.3,94.464,94.464,0,0,1,16.783-7.359,113.433,113.433,0,0,1,18.961-4.41,146.308,146.308,0,0,1,21.148-1.469,152.644,152.644,0,0,1,21.658,1.461,112.4,112.4,0,0,1,19.139,4.363,90.039,90.039,0,0,1,16.615,7.285,79.388,79.388,0,0,1,14.086,10.2,74.277,74.277,0,0,1,11.23,12.813,75.79,75.79,0,0,1,8.02,15.117,89.254,89.254,0,0,1,4.809,17.445,116.832,116.832,0,0,1,1.6,19.742,81.117,81.117,0,0,1-2.168,18.551,92.761,92.761,0,0,1-6.494,18.414,119.009,119.009,0,0,1-10.84,18.262,163.935,163.935,0,0,1-15.164,18.125l-28.051,27.648a51.651,51.651,0,0,0-6.615,9.547,64.466,64.466,0,0,0-4.791,11.527,103.4,103.4,0,0,0-4.1,28.961Z" transform="translate(-9984.518 -16067.023)"/>
  </g>
</svg>
