<svg xmlns="http://www.w3.org/2000/svg" width="360" height="360" viewBox="0 0 360 360">
  <g id="Message" transform="translate(-980 -1169)">
    <path id="sticky_note_2_FILL0_wght400_GRAD0_opsz48_1_" data-name="sticky_note_2_FILL0_wght400_GRAD0_opsz48 (1)" d="M34.333,317.667H223.222V237.389a13.729,13.729,0,0,1,14.167-14.167h80.278V34.333H34.333Zm0,28.333a27.324,27.324,0,0,1-20.069-8.264A27.325,27.325,0,0,1,6,317.667V34.333a27.324,27.324,0,0,1,8.264-20.069A27.324,27.324,0,0,1,34.333,6H317.667a27.325,27.325,0,0,1,20.07,8.264A27.324,27.324,0,0,1,346,34.333V232.667L232.667,346Zm70.833-141.667a14.169,14.169,0,1,1,0-28.333h51.944a14.169,14.169,0,1,1,0,28.333Zm0-75.555a14.169,14.169,0,1,1,0-28.333H246.833a14.169,14.169,0,1,1,0,28.333ZM34.333,317.667v0Z" transform="translate(984 1173)"/>
    <rect id="Rectangle_3334" data-name="Rectangle 3334" width="360" height="360" transform="translate(980 1169)" fill="none"/>
  </g>
</svg>
