<svg xmlns="http://www.w3.org/2000/svg" width="360" height="360" viewBox="0 0 360 360">
  <g id="Passport" transform="translate(-19824 -21103)">
    <g id="Group_3028" data-name="Group 3028" transform="translate(19824 21103)">
      <rect id="Rectangle_1950" data-name="Rectangle 1950" width="360" height="360" rx="4" fill="none"/>
    </g>
    <path id="Path_1367" data-name="Path 1367" d="M305.222,40.778V305.222H40.778V40.778H305.222m0-37.778H40.778A37.767,37.767,0,0,0,3,40.778V305.222A37.767,37.767,0,0,0,40.778,343H305.222A37.889,37.889,0,0,0,343,305.222V40.778A37.889,37.889,0,0,0,305.222,3ZM173,173a56.667,56.667,0,1,1,56.667-56.667A56.833,56.833,0,0,1,173,173ZM286.333,286.333H59.667v-28.9c0-47.222,74.989-67.622,113.333-67.622s113.333,20.4,113.333,67.622Z" transform="translate(19831 21110)"/>
  </g>
</svg>
