<svg id="Scanner" xmlns="http://www.w3.org/2000/svg" width="360" height="360" viewBox="0 0 360 360">
  <rect id="Rectangle_3369" data-name="Rectangle 3369" width="360" height="360" fill="none"/>
  <path id="Subtraction_38" data-name="Subtraction 38" d="M11665.1,15421h-146.2a28.072,28.072,0,0,1-10.844-2.081,29.766,29.766,0,0,1-15.408-15.406,28.086,28.086,0,0,1-2.081-10.846v-44.2h-40.23a28.088,28.088,0,0,1-10.848-2.081,29.753,29.753,0,0,1-15.405-15.407,28.086,28.086,0,0,1-2.081-10.846v-75.367a48.626,48.626,0,0,1,3.4-18.371,47.3,47.3,0,0,1,25.357-25.282,48.519,48.519,0,0,1,18.273-3.381h245.934a48.891,48.891,0,0,1,18.374,3.381,46.981,46.981,0,0,1,25.279,25.282,48.883,48.883,0,0,1,3.381,18.371v75.367a28.082,28.082,0,0,1-2.081,10.846,29.753,29.753,0,0,1-15.405,15.407,28.087,28.087,0,0,1-10.847,2.081h-40.23v44.2a28.086,28.086,0,0,1-2.081,10.846,29.773,29.773,0,0,1-15.409,15.406A28.088,28.088,0,0,1,11665.1,15421Zm-146.2-105.4v77.066h146.2V15315.6Zm205.1-81.1a7.507,7.507,0,0,0-7.5,7.5v64a7.5,7.5,0,1,0,15,0v-64A7.5,7.5,0,0,0,11724,15234.5Zm-30.566-50.935h-202.87v-40.234a28.074,28.074,0,0,1,2.081-10.845,29.773,29.773,0,0,1,15.408-15.407,28.072,28.072,0,0,1,10.844-2.081h146.2a28.088,28.088,0,0,1,10.848,2.081,29.779,29.779,0,0,1,15.409,15.407,28.081,28.081,0,0,1,2.081,10.845v40.234Z" transform="translate(-11412 -15088)"/>
</svg>
