<svg xmlns="http://www.w3.org/2000/svg" width="360" height="360" viewBox="0 0 360 360">
  <g id="System" transform="translate(-19714 -20369)">
    <rect id="Rectangle_1952" data-name="Rectangle 1952" width="360" height="360" transform="translate(19714 20369)" fill="none"/>
    <path id="settings_suggest_FILL1_wght400_GRAD0_opsz48" d="M279.29,103.3a7.394,7.394,0,0,1-3.332-.833,5.268,5.268,0,0,1-2.5-2.916l-12.5-27.076-27.075-12.5a5.268,5.268,0,0,1-2.916-2.5,7.081,7.081,0,0,1,0-6.665,5.268,5.268,0,0,1,2.916-2.5l27.075-12.5,12.5-27.076a5.268,5.268,0,0,1,2.5-2.916,7.081,7.081,0,0,1,6.665,0,5.268,5.268,0,0,1,2.5,2.916l12.5,27.076,27.076,12.5a5.268,5.268,0,0,1,2.916,2.5,7.082,7.082,0,0,1,0,6.665,5.268,5.268,0,0,1-2.916,2.5l-27.076,12.5-12.5,27.076a5.268,5.268,0,0,1-2.5,2.916A7.394,7.394,0,0,1,279.29,103.3Zm-171.617,226.6a11.513,11.513,0,0,1-8.123-3.332,14.115,14.115,0,0,1-4.374-7.915l-2.916-27.075a46.146,46.146,0,0,1-22.91-10.83l-22.494,9.58a10.749,10.749,0,0,1-8.747.417,14.159,14.159,0,0,1-6.665-5.415l-24.993-40.4a13.179,13.179,0,0,1-1.458-9.372,12.342,12.342,0,0,1,5.207-7.706l21.66-14.163a45.019,45.019,0,0,1-2.083-12.5,45.02,45.02,0,0,1,2.083-12.5L10.2,174.534a12.341,12.341,0,0,1-5.207-7.706,13.178,13.178,0,0,1,1.458-9.372l24.993-40.405a14.158,14.158,0,0,1,6.665-5.415,10.749,10.749,0,0,1,8.747.417l22.494,9.581a46.144,46.144,0,0,1,22.91-10.83l2.916-27.076a14.116,14.116,0,0,1,4.374-7.914,11.512,11.512,0,0,1,8.123-3.332H155.16a11.513,11.513,0,0,1,8.123,3.332,14.116,14.116,0,0,1,4.374,7.914l2.916,27.076a46.146,46.146,0,0,1,22.91,10.83l22.493-9.581a10.75,10.75,0,0,1,8.748-.417,14.158,14.158,0,0,1,6.665,5.415l24.993,40.405a13.177,13.177,0,0,1,1.458,9.372,12.34,12.34,0,0,1-5.207,7.706L230.971,188.7a45.022,45.022,0,0,1,2.083,12.5,45.018,45.018,0,0,1-2.083,12.5l21.66,14.163a12.341,12.341,0,0,1,5.207,7.706,13.179,13.179,0,0,1-1.458,9.372l-24.993,40.4a14.158,14.158,0,0,1-6.665,5.415,10.75,10.75,0,0,1-8.748-.417l-22.493-9.58a46.147,46.147,0,0,1-22.91,10.83l-2.916,27.075a14.115,14.115,0,0,1-4.374,7.915,11.513,11.513,0,0,1-8.123,3.332Zm23.743-80.81q20.827,0,34.365-13.538t13.538-34.365q0-20.827-13.538-34.365t-34.365-13.538q-20.827,0-34.365,13.538T83.514,201.193q0,20.827,13.538,34.365T131.416,249.1ZM131.416,201.193Z" transform="translate(19719.313 20374)"/>
    <path id="settings_suggest_FILL1_wght400_GRAD0_opsz48-2" data-name="settings_suggest_FILL1_wght400_GRAD0_opsz48" d="M266.913,78.55a5.532,5.532,0,0,1-2.493-.623,3.942,3.942,0,0,1-1.87-2.182L253.2,55.487l-20.257-9.35a3.941,3.941,0,0,1-2.182-1.87,5.3,5.3,0,0,1,0-4.986,3.941,3.941,0,0,1,2.182-1.87l20.257-9.35L262.55,7.8a3.941,3.941,0,0,1,1.87-2.182,5.3,5.3,0,0,1,4.987,0,3.941,3.941,0,0,1,1.87,2.182l9.349,20.257,20.257,9.35a3.942,3.942,0,0,1,2.182,1.87,5.3,5.3,0,0,1,0,4.986,3.942,3.942,0,0,1-2.182,1.87l-20.257,9.35-9.349,20.257a3.942,3.942,0,0,1-1.87,2.182A5.532,5.532,0,0,1,266.913,78.55Z" transform="translate(19760.313 20507.225)"/>
  </g>
</svg>
