<svg xmlns="http://www.w3.org/2000/svg" width="340" height="340" viewBox="0 0 340 340">
  <g id="Web" transform="translate(-115.001 -804)" style="isolation: isolate">
    <g id="Group_3818" data-name="Group 3818" transform="translate(115.001 804)">
      <path id="Union_2" data-name="Union 2" d="M103.314,326.539a172.149,172.149,0,0,1-54-36.269,168.153,168.153,0,0,1-36.049-54.2A170.036,170.036,0,0,1,0,169.081,169.182,169.182,0,0,1,49.31,48.851a165.323,165.323,0,0,1,54-35.909A171.3,171.3,0,0,1,170,0q35.769,0,66.686,12.942a165.322,165.322,0,0,1,54,35.909A168.081,168.081,0,0,1,340,169.081a171.757,171.757,0,0,1-13.161,66.985,169.719,169.719,0,0,1-36.149,54.2,172.149,172.149,0,0,1-54,36.269Q205.71,340.02,170,340A165.333,165.333,0,0,1,103.314,326.539ZM170,305.928c2.856,0,5.672-.12,8.488-.2A146.232,146.232,0,0,0,194.9,280.284q9.976-19.832,16.317-46.974H129.178a219.533,219.533,0,0,0,15.938,45.935,147.565,147.565,0,0,0,16.637,26.483C164.488,305.808,167.244,305.928,170,305.928Zm-42.959-6.91a200.591,200.591,0,0,1-11.4-23.766,249.656,249.656,0,0,1-12.762-41.941H49.65A136.833,136.833,0,0,0,127.041,299.018ZM224.6,274.932a204.7,204.7,0,0,1-11.464,24.046,136.792,136.792,0,0,0,77.191-65.667H237.525A304.184,304.184,0,0,1,224.6,274.932ZM243.5,154.422c.34,5.273.379,10.186.379,14.659,0,6.311-.12,12.143-.579,17.735-.4,5.472-1.078,12.462-1.917,21.01h59.276a137.021,137.021,0,0,0-.1-76.053H241.839C242.677,141.68,243.2,149.149,243.5,154.422Zm-121.069-1.638q-.449,7.849-.439,16.3c0,5.992.14,11.743.439,17.216.26,5.592,1.019,12.742,2.077,21.53h91.351c1.138-8.788,1.857-15.937,2.157-21.53.32-5.472.459-11.224.459-17.216,0-5.632-.14-11.064-.459-16.3-.3-5.273-1.019-12.3-2.157-21.01H124.5C123.446,140.482,122.687,147.512,122.427,152.784ZM98.181,207.827c-.839-7.669-1.3-14.539-1.458-20.651-.14-6.031-.22-12.1-.22-18.094,0-6.99.14-13.341.439-18.893.22-5.512.839-11.7,1.7-18.414H39.464a136.778,136.778,0,0,0-.12,76.053ZM224.223,63.71a290.431,290.431,0,0,1,12.962,42.5H290.09a136.427,136.427,0,0,0-76.931-65.188A189.406,189.406,0,0,1,224.223,63.71Zm-77.171-8.029C140.821,68.064,134.85,85,129.178,106.21h82.484a168.449,168.449,0,0,0-15.678-43.539,185.358,185.358,0,0,0-18.534-28.48c-2.457-.08-4.933-.16-7.449-.16-2.976,0-5.932.12-8.867.24A101.931,101.931,0,0,0,147.052,55.681ZM103.314,106.21a241.081,241.081,0,0,1,11.863-40.942,190.36,190.36,0,0,1,11.7-24.246A136.467,136.467,0,0,0,49.93,106.21Z"/>
    </g>
  </g>
</svg>
